<?xml version="1.0" encoding="iso-8859-1"?>
<!-- Uploaded to: SVG Repo, www.svgrepo.com, Generator: SVG Repo Mixer Tools -->
<svg height="800px" width="800px" version="1.1" id="Layer_1" xmlns="http://www.w3.org/2000/svg" xmlns:xlink="http://www.w3.org/1999/xlink" 
	 viewBox="0 0 512 512" xml:space="preserve">
<circle style="fill:#273B7A;" cx="256" cy="256" r="256"/>
<path style="fill:#121149;" d="M509.102,217.388l-93.508-93.679c-6.309,4.911-10.443,11.617-18.235,11.617
	c-77.576,5.172-165.495-10.343-227.556,41.374c-12.821,10.99-24.181,26.357-30.982,44.035c1.315,1.203,2.174,2.967,2.126,5.311
	c-0.24,11.647,4.518,22.723,4.275,34.361c-0.11,5.289-2.179,9.873-2.981,14.957c-0.902,5.711,2.06,12.028,2.963,17.648
	c0.298,1.858-0.034,3.496-0.752,4.873c18.899,31.991,52.764,67.286,27.362,81.991c-16.784,12.588-61.352,12.35-83.468,20.656
	l103.308,103.309C212.216,509.164,233.777,512,256,512c141.384,0,256-114.616,256-256C512,242.874,511.009,229.981,509.102,217.388z
	"/>
<path style="fill:#71E2EF;" d="M256,132.094c-68.322,0-123.906,55.584-123.906,123.906S187.678,379.906,256,379.906
	S379.906,324.322,379.906,256S324.322,132.094,256,132.094z M338.454,326.237c-4.894-4.534-10.109-8.599-15.572-12.219
	c5.184-15.412,8.242-32.546,8.919-50.409h32.29C362.434,287.413,353.063,309.114,338.454,326.237z M173.546,185.763
	c4.894,4.532,10.109,8.599,15.572,12.219c-5.184,15.412-8.242,32.546-8.919,50.409h-32.292
	C149.568,224.587,158.937,202.886,173.546,185.763z M185.711,335.748c2.932-2.594,5.997-4.987,9.156-7.22
	c1.922,4.161,4.005,8.163,6.273,11.943c2.305,3.843,4.756,7.375,7.313,10.652C200.318,347.043,192.672,341.906,185.711,335.748z
	 M256,293.962c-4.661,0-9.273,0.288-13.834,0.802c-0.686-9.425-1.143-19.811-1.286-31.154h30.244
	c-0.143,11.343-0.6,21.732-1.286,31.154C265.273,294.25,260.661,293.962,256,293.962z M268.459,309.924
	c-3.225,29.263-8.647,46.561-12.459,51.495c-3.812-4.934-9.233-22.231-12.459-51.495c4.106-0.476,8.261-0.743,12.459-0.743
	C260.198,309.181,264.354,309.448,268.459,309.924z M240.878,248.391c0.143-11.343,0.6-21.73,1.286-31.154
	c4.561,0.514,9.175,0.802,13.834,0.802s9.273-0.288,13.834-0.802c0.686,9.425,1.143,19.811,1.286,31.154H240.878z M256,202.819
	c-4.199,0-8.354-0.267-12.459-0.743c3.225-29.263,8.647-46.561,12.459-51.495c3.812,4.934,9.233,22.231,12.459,51.495
	C264.354,202.552,260.199,202.819,256,202.819z M208.453,160.875c-2.557,3.277-5.008,6.809-7.313,10.652
	c-2.269,3.781-4.351,7.782-6.273,11.943c-3.158-2.232-6.223-4.625-9.156-7.22C192.672,170.094,200.318,164.957,208.453,160.875z
	 M237.359,155.045c-1.815,5.26-3.456,11.523-4.932,18.906c-1.529,7.64-2.812,16.16-3.844,25.3
	c-7.084-1.877-13.927-4.487-20.449-7.789C215.574,174.745,225.749,161.845,237.359,155.045z M227.138,214.588
	c-0.824,10.745-1.326,22.107-1.477,33.802h-30.227c0.65-15.226,3.212-29.689,7.282-42.606
	C210.503,209.591,218.681,212.539,227.138,214.588z M225.661,263.609c0.152,11.695,0.652,23.057,1.477,33.802
	c-8.457,2.05-16.636,4.998-24.421,8.804c-4.07-12.917-6.632-27.381-7.282-42.608h30.225V263.609z M228.583,312.749
	c1.033,9.14,2.317,17.66,3.844,25.3c1.476,7.383,3.117,13.646,4.932,18.906c-11.611-6.801-21.785-19.701-29.227-36.418
	C214.657,317.237,221.499,314.627,228.583,312.749z M303.547,351.125c2.557-3.277,5.008-6.809,7.313-10.652
	c2.269-3.781,4.351-7.782,6.273-11.943c3.158,2.232,6.223,4.625,9.156,7.22C319.328,341.906,311.682,347.043,303.547,351.125z
	 M274.641,356.955c1.815-5.26,3.456-11.523,4.932-18.906c1.529-7.64,2.812-16.16,3.844-25.3c7.084,1.877,13.927,4.487,20.449,7.789
	C296.426,337.255,286.251,350.155,274.641,356.955z M284.862,297.412c0.824-10.745,1.326-22.107,1.477-33.802h30.227
	c-0.65,15.227-3.212,29.689-7.282,42.608C301.497,302.409,293.319,299.461,284.862,297.412z M286.339,248.391
	c-0.152-11.695-0.652-23.057-1.477-33.802c8.457-2.05,16.636-4.998,24.421-8.804c4.07,12.917,6.632,27.381,7.282,42.606H286.339z
	 M283.417,199.251c-1.033-9.14-2.317-17.66-3.844-25.3c-1.476-7.383-3.117-13.646-4.932-18.906
	c11.611,6.801,21.785,19.701,29.225,36.418C297.343,194.763,290.501,197.373,283.417,199.251z M310.86,171.529
	c-2.305-3.843-4.756-7.375-7.313-10.652c8.137,4.082,15.781,9.218,22.743,15.377c-2.932,2.594-5.997,4.987-9.156,7.22
	C315.211,179.31,313.129,175.309,310.86,171.529z M180.196,263.609c0.677,17.863,3.736,34.997,8.919,50.409
	c-5.463,3.62-10.678,7.687-15.572,12.219c-14.608-17.124-23.978-38.824-25.638-62.628H180.196z M331.804,248.391
	c-0.678-17.863-3.736-34.995-8.919-50.409c5.463-3.62,10.678-7.687,15.572-12.219c14.608,17.124,23.978,38.824,25.638,62.628
	H331.804z"/>
<path style="fill:#38C6D9;" d="M379.906,256c0-67.936-54.965-123.254-122.756-123.876v20.27c3.693,6.611,8.395,23.247,11.309,49.685
	c-3.731,0.433-7.502,0.681-11.309,0.726v15.219c4.27-0.043,8.501-0.314,12.685-0.784c0.686,9.425,1.143,19.811,1.286,31.154h-13.972
	v15.219h13.972c-0.143,11.343-0.6,21.732-1.286,31.154c-4.186-0.471-8.416-0.741-12.685-0.784V309.2
	c3.808,0.045,7.58,0.293,11.309,0.726c-2.913,26.436-7.616,43.072-11.309,49.685v20.27C324.941,379.254,379.906,323.936,379.906,256
	z M364.094,248.391h-32.29c-0.678-17.863-3.736-34.995-8.919-50.409c5.463-3.62,10.678-7.687,15.572-12.219
	C353.063,202.886,362.434,224.587,364.094,248.391z M326.289,176.252c-2.932,2.594-5.997,4.987-9.156,7.22
	c-1.922-4.162-4.005-8.163-6.273-11.943c-2.305-3.843-4.756-7.375-7.313-10.652C311.682,164.957,319.328,170.094,326.289,176.252z
	 M286.339,248.391c-0.152-11.695-0.652-23.057-1.477-33.802c8.457-2.05,16.636-4.998,24.421-8.804
	c4.07,12.917,6.632,27.381,7.282,42.606H286.339z M316.564,263.609c-0.65,15.227-3.212,29.689-7.282,42.608
	c-7.785-3.808-15.963-6.754-24.421-8.804c0.824-10.745,1.326-22.107,1.477-33.802h30.225V263.609z M303.866,191.462
	c-6.523,3.3-13.367,5.91-20.449,7.789c-1.033-9.14-2.317-17.66-3.844-25.3c-1.476-7.383-3.117-13.646-4.932-18.906
	C286.251,161.845,296.426,174.745,303.866,191.462z M274.641,356.955c1.815-5.26,3.456-11.523,4.932-18.906
	c1.529-7.64,2.812-16.16,3.844-25.3c7.084,1.877,13.927,4.487,20.449,7.789C296.426,337.255,286.251,350.155,274.641,356.955z
	 M303.547,351.125c2.557-3.277,5.008-6.809,7.313-10.652c2.269-3.781,4.351-7.782,6.273-11.943c3.158,2.232,6.223,4.625,9.156,7.22
	C319.328,341.906,311.682,347.043,303.547,351.125z M322.882,314.018c5.184-15.412,8.242-32.546,8.919-50.409h32.29
	c-1.66,23.804-11.031,45.504-25.638,62.628C333.56,321.705,328.347,317.638,322.882,314.018z"/>
<path style="fill:#D48B07;" d="M408.512,120.798H291.793c-5.563,0-10.071,4.51-10.071,10.071l0.002,58.061
	c0,5.563,4.51,10.071,10.073,10.071h9.48v22.08c0,4.315,5.217,6.475,8.268,3.424l25.503-25.503h73.468
	c5.563,0,10.071-4.51,10.071-10.071l-0.002-58.061C418.583,125.306,414.074,120.798,408.512,120.798z"/>
<path style="fill:#FFC61B;" d="M95.944,404.001h116.719c5.563,0,10.071-4.51,10.071-10.071v-58.061
	c0-5.563-4.51-10.071-10.073-10.071h-9.48v-22.08c0-4.315-5.217-6.475-8.268-3.424l-25.503,25.503H95.942
	c-5.563,0-10.071,4.51-10.071,10.071v58.061C85.871,399.491,90.381,404.001,95.944,404.001z"/>
</svg>